RobotoSerifMicroWide-HairlineItalic04ip.ufo
<glyph name="exclam" format="2">
  <advance width="363"/>
  <unicode hex="0021"/>
  <guideline x="206" y="212" angle="81" identifier="mcAcuAAbKN"/>
  <outline>
    <contour>
      <point x="339" y="755" type="line"/>
      <point x="309" y="573"/>
      <point x="276" y="476"/>
      <point x="242" y="258" type="curve"/>
      <point x="194" y="258" type="line"/>
      <point x="228" y="476"/>
      <point x="226" y="572"/>
      <point x="256" y="755" type="curve"/>
    </contour>
    <contour>
      <point x="256" y="57" type="curve" smooth="yes"/>
      <point x="256" y="99"/>
      <point x="229" y="124"/>
      <point x="190" y="124" type="curve" smooth="yes"/>
      <point x="149" y="124"/>
      <point x="125" y="99"/>
      <point x="125" y="57" type="curve" smooth="yes"/>
      <point x="125" y="14"/>
      <point x="149" y="-10"/>
      <point x="190" y="-10" type="curve" smooth="yes"/>
      <point x="229" y="-10"/>
      <point x="256" y="14"/>
    </contour>
  </outline>
</glyph>
<glyph name="ampersand" format="2">
  <advance width="813"/>
  <unicode hex="0026"/>
  <outline>
    <contour>
      <point x="755" y="0" type="line"/>
      <point x="761" y="40" type="line"/>
      <point x="718" y="40" type="line" smooth="yes"/>
      <point x="673" y="40"/>
      <point x="655" y="45"/>
      <point x="625" y="81" type="curve" smooth="yes"/>
      <point x="349" y="421"/>
      <point x="321" y="475"/>
      <point x="321" y="555" type="curve" smooth="yes"/>
      <point x="321" y="637"/>
      <point x="368" y="680"/>
      <point x="452" y="680" type="curve" smooth="yes"/>
      <point x="536" y="680"/>
      <point x="565" y="639"/>
      <point x="565" y="584" type="curve" smooth="yes"/>
      <point x="565" y="498"/>
      <point x="500" y="466"/>
      <point x="341" y="419" type="curve"/>
      <point x="352" y="392" type="line"/>
      <point x="540" y="436"/>
      <point x="616" y="494"/>
      <point x="616" y="592" type="curve" smooth="yes"/>
      <point x="616" y="642"/>
      <point x="584" y="718"/>
      <point x="455" y="718" type="curve" smooth="yes"/>
      <point x="334" y="718"/>
      <point x="269" y="643"/>
      <point x="269" y="552" type="curve" smooth="yes"/>
      <point x="269" y="458"/>
      <point x="302" y="414"/>
      <point x="624" y="0" type="curve"/>
    </contour>
    <contour>
      <point x="338" y="34" type="curve" smooth="yes"/>
      <point x="221" y="34"/>
      <point x="150" y="86"/>
      <point x="150" y="187" type="curve" smooth="yes"/>
      <point x="150" y="304"/>
      <point x="224" y="353"/>
      <point x="336" y="390" type="curve"/>
      <point x="316" y="414" type="line"/>
      <point x="190" y="381"/>
      <point x="95" y="317"/>
      <point x="95" y="186" type="curve" smooth="yes"/>
      <point x="95" y="55"/>
      <point x="183" y="-10"/>
      <point x="324" y="-10" type="curve" smooth="yes"/>
      <point x="566" y="-10"/>
      <point x="679" y="224"/>
      <point x="713" y="322" type="curve" smooth="yes"/>
      <point x="724" y="353"/>
      <point x="745" y="358"/>
      <point x="797" y="358" type="curve" smooth="yes"/>
      <point x="806" y="358" type="line"/>
      <point x="812" y="397" type="line"/>
      <point x="589" y="397" type="line"/>
      <point x="583" y="358" type="line"/>
      <point x="598" y="358" type="line" smooth="yes"/>
      <point x="619" y="358"/>
      <point x="669" y="355"/>
      <point x="669" y="348" type="curve"/>
      <point x="646" y="225"/>
      <point x="538" y="34"/>
    </contour>
  </outline>
</glyph>
<glyph name="four" format="2">
  <advance width="680"/>
  <unicode hex="0034"/>
  <guideline x="539" y="367" angle="81" identifier="C5ha4HIMJi"/>
  <outline>
    <contour>
      <point x="64" y="150" type="line"/>
      <point x="650" y="150" type="line"/>
      <point x="657" y="196" type="line"/>
      <point x="101" y="196" type="line"/>
      <point x="102" y="177" type="line"/>
      <point x="554" y="663" type="line"/>
      <point x="544" y="667" type="line"/>
      <point x="505" y="667" type="line"/>
      <point x="73" y="208" type="line"/>
    </contour>
    <contour>
      <point x="473" y="-50" type="line"/>
      <point x="587" y="667" type="line"/>
      <point x="522" y="667" type="line"/>
      <point x="536" y="655" type="line"/>
      <point x="424" y="-50" type="line"/>
    </contour>
  </outline>
</glyph>
<glyph name="question" format="2">
  <advance width="688"/>
  <unicode hex="003F"/>
  <guideline x="276" y="220" angle="81" identifier="kuQfEv6Yd6"/>
  <outline>
    <contour>
      <point x="345" y="426" type="curve"/>
      <point x="317" y="248" type="line"/>
      <point x="377" y="248" type="line"/>
      <point x="399" y="385" type="line"/>
      <point x="550" y="388"/>
      <point x="671" y="448"/>
      <point x="671" y="585" type="curve" smooth="yes"/>
      <point x="671" y="707"/>
      <point x="589" y="762"/>
      <point x="456" y="762" type="curve" smooth="yes"/>
      <point x="364" y="762"/>
      <point x="274" y="729"/>
      <point x="252" y="715" type="curve"/>
      <point x="229" y="569" type="line"/>
      <point x="289" y="569" type="line"/>
      <point x="311" y="704" type="line"/>
      <point x="263" y="701"/>
      <point x="256" y="673"/>
      <point x="256" y="656" type="curve"/>
      <point x="275" y="678"/>
      <point x="358" y="718"/>
      <point x="454" y="718" type="curve" smooth="yes"/>
      <point x="553" y="718"/>
      <point x="612" y="672"/>
      <point x="612" y="582" type="curve" smooth="yes"/>
      <point x="612" y="454"/>
      <point x="495" y="427"/>
    </contour>
    <contour>
      <point x="386" y="57" type="curve" smooth="yes"/>
      <point x="386" y="99"/>
      <point x="359" y="124"/>
      <point x="320" y="124" type="curve" smooth="yes"/>
      <point x="279" y="124"/>
      <point x="255" y="99"/>
      <point x="255" y="57" type="curve" smooth="yes"/>
      <point x="255" y="14"/>
      <point x="279" y="-10"/>
      <point x="320" y="-10" type="curve" smooth="yes"/>
      <point x="359" y="-10"/>
      <point x="386" y="14"/>
    </contour>
  </outline>
</glyph>
<glyph name="Z" format="2">
  <advance width="658"/>
  <unicode hex="005A"/>
  <anchor x="446" y="741" name="top"/>
  <anchor x="329" y="0" name="bottom"/>
  <outline>
    <contour>
      <point x="38" y="42.0" type="line"/>
      <point x="44" y="18.0" type="line"/>
      <point x="701" y="659.0" type="line"/>
      <point x="709" y="710.0" type="line"/>
      <point x="144" y="710.0" type="line"/>
      <point x="109" y="487.0" type="line"/>
      <point x="148" y="487.0" type="line"/>
      <point x="186" y="625.0" type="line" smooth="yes"/>
      <point x="194" y="655"/>
      <point x="238.0" y="668.0"/>
      <point x="333" y="668.0" type="curve" smooth="yes"/>
      <point x="666" y="668.0" type="line"/>
      <point x="661" y="683.0" type="line"/>
      <point x="14" y="54.0" type="line"/>
      <point x="6" y="0.0" type="line"/>
      <point x="611" y="0.0" type="line"/>
      <point x="646" y="223.0" type="line"/>
      <point x="607" y="223.0" type="line"/>
      <point x="569" y="85.0" type="line" smooth="yes"/>
      <point x="561" y="55"/>
      <point x="517.0" y="42.0"/>
      <point x="423" y="42.0" type="curve" smooth="yes"/>
    </contour>
  </outline>
</glyph>
<glyph name="yen" format="2">
  <advance width="680"/>
  <unicode hex="00A5"/>
  <outline>
    <contour>
      <point x="130" y="211" type="line"/>
      <point x="124" y="175" type="line"/>
      <point x="620" y="175" type="line"/>
      <point x="626" y="211" type="line"/>
    </contour>
    <contour>
      <point x="156" y="364" type="line"/>
      <point x="150" y="328" type="line"/>
      <point x="646" y="328" type="line"/>
      <point x="652" y="364" type="line"/>
    </contour>
    <contour>
      <point x="381" y="375" type="line"/>
      <point x="334" y="76" type="line" smooth="yes"/>
      <point x="329" y="47"/>
      <point x="289" y="40"/>
      <point x="235" y="40" type="curve" smooth="yes"/>
      <point x="211" y="40" type="line"/>
      <point x="203" y="0" type="line"/>
      <point x="485" y="0" type="line"/>
      <point x="493" y="40" type="line"/>
      <point x="469" y="40" type="line" smooth="yes"/>
      <point x="413" y="40.0"/>
      <point x="378" y="49"/>
      <point x="382" y="76" type="curve" smooth="yes"/>
      <point x="429" y="375" type="line"/>
    </contour>
    <contour>
      <point x="415" y="325" type="line"/>
      <point x="657" y="627" type="line" smooth="yes"/>
      <point x="683" y="660"/>
      <point x="704" y="670"/>
      <point x="732" y="670" type="curve" smooth="yes"/>
      <point x="740" y="670" type="line"/>
      <point x="748" y="710" type="line"/>
      <point x="565" y="710" type="line"/>
      <point x="557" y="670" type="line"/>
      <point x="564" y="670" type="line" smooth="yes"/>
      <point x="595" y="670"/>
      <point x="627" y="667"/>
      <point x="629" y="658" type="curve"/>
      <point x="398" y="367" type="line"/>
      <point x="409" y="367" type="line"/>
      <point x="260" y="663" type="line"/>
      <point x="263" y="670"/>
      <point x="288" y="670"/>
      <point x="320" y="670" type="curve" smooth="yes"/>
      <point x="333" y="670" type="line"/>
      <point x="341" y="710" type="line"/>
      <point x="158" y="710" type="line"/>
      <point x="150" y="670" type="line"/>
      <point x="158" y="670" type="line" smooth="yes"/>
      <point x="188" y="670"/>
      <point x="203" y="669"/>
      <point x="218" y="640" type="curve" smooth="yes"/>
      <point x="378" y="326" type="line"/>
    </contour>
  </outline>
</glyph>
<glyph name="Thorn" format="2">
  <advance width="743"/>
  <unicode hex="00DE"/>
  <outline>
    <contour>
      <point x="305" y="538" type="line"/>
      <point x="511" y="538" type="line" smooth="yes"/>
      <point x="644.0" y="538.0"/>
      <point x="702" y="471"/>
      <point x="702" y="382" type="curve" smooth="yes"/>
      <point x="702" y="264"/>
      <point x="633.0" y="190.0"/>
      <point x="466" y="190" type="curve" smooth="yes"/>
      <point x="242" y="190" type="line"/>
      <point x="235" y="148" type="line"/>
      <point x="458" y="148" type="line" smooth="yes"/>
      <point x="632.0" y="148.0"/>
      <point x="756" y="216"/>
      <point x="756" y="388" type="curve" smooth="yes"/>
      <point x="756" y="498"/>
      <point x="674.0" y="582.0"/>
      <point x="517" y="582" type="curve" smooth="yes"/>
      <point x="302" y="582" type="line"/>
    </contour>
    <contour>
      <point x="197" y="84" type="line" smooth="yes"/>
      <point x="192" y="54"/>
      <point x="159" y="40"/>
      <point x="99" y="40" type="curve" smooth="yes"/>
      <point x="65" y="40" type="line"/>
      <point x="59" y="0" type="line"/>
      <point x="355" y="0" type="line"/>
      <point x="361" y="40" type="line"/>
      <point x="327" y="40" type="line" smooth="yes"/>
      <point x="268" y="40.0"/>
      <point x="240" y="52"/>
      <point x="244" y="80" type="curve" smooth="yes"/>
      <point x="330" y="626" type="line" smooth="yes"/>
      <point x="335" y="656"/>
      <point x="367" y="670"/>
      <point x="427" y="670" type="curve" smooth="yes"/>
      <point x="461" y="670" type="line"/>
      <point x="467" y="710" type="line"/>
      <point x="171" y="710" type="line"/>
      <point x="165" y="670" type="line"/>
      <point x="200" y="670" type="line" smooth="yes"/>
      <point x="260.0" y="670.0"/>
      <point x="287" y="653"/>
      <point x="283" y="626" type="curve" smooth="yes"/>
    </contour>
  </outline>
</glyph>
<glyph name="eth" format="2">
  <advance width="665"/>
  <unicode hex="00F0"/>
  <outline>
    <contour>
      <point x="365" y="-13" type="curve"/>
      <point x="585" y="-13"/>
      <point x="650" y="219"/>
      <point x="650" y="392" type="curve" smooth="yes"/>
      <point x="650.0" y="623"/>
      <point x="550" y="728"/>
      <point x="360" y="813" type="curve"/>
      <point x="342" y="779" type="line"/>
      <point x="543" y="684"/>
      <point x="596" y="598"/>
      <point x="596" y="393" type="curve" smooth="yes"/>
      <point x="596" y="168"/>
      <point x="519" y="28.0"/>
      <point x="364" y="28" type="curve" smooth="yes"/>
      <point x="219" y="28.0"/>
      <point x="161" y="122"/>
      <point x="161" y="252" type="curve" smooth="yes"/>
      <point x="161.0" y="406.0"/>
      <point x="246" y="506.0"/>
      <point x="383" y="506" type="curve" smooth="yes"/>
      <point x="503" y="506"/>
      <point x="560" y="440"/>
      <point x="612" y="339" type="curve"/>
      <point x="613" y="394" type="line"/>
      <point x="578" y="473"/>
      <point x="500" y="544"/>
      <point x="378" y="544" type="curve" smooth="yes"/>
      <point x="191" y="544"/>
      <point x="106" y="397"/>
      <point x="106" y="245" type="curve" smooth="yes"/>
      <point x="106" y="89.0"/>
      <point x="194" y="-13.0"/>
    </contour>
    <contour>
      <point x="281" y="656" type="line"/>
      <point x="288" y="618" type="line"/>
      <point x="715" y="705" type="line"/>
      <point x="707" y="743" type="line"/>
    </contour>
  </outline>
</glyph>
<glyph name="ibreve" format="2">
  <advance width="365"/>
  <unicode hex="012D"/>
  <outline>
    <contour>
      <point x="271.0" y="675.0" type="curve" smooth="yes"/>
      <point x="367.0" y="675.0"/>
      <point x="414.0" y="723.0"/>
      <point x="417.0" y="824.0" type="curve"/>
      <point x="371.0" y="824.0" type="line"/>
      <point x="367.0" y="749.0"/>
      <point x="342.0" y="722.0"/>
      <point x="273.0" y="722.0" type="curve" smooth="yes"/>
      <point x="202.0" y="722.0"/>
      <point x="182.0" y="757.0"/>
      <point x="184.0" y="824.0" type="curve"/>
      <point x="138.0" y="824.0" type="line"/>
      <point x="132.0" y="731.0"/>
      <point x="166.0" y="675.0"/>
    </contour>
    <contour>
      <point x="228" y="126" type="curve" smooth="yes"/>
      <point x="297" y="565" type="line"/>
      <point x="142" y="565" type="line"/>
      <point x="136" y="527" type="line"/>
      <point x="163" y="523" type="line" smooth="yes"/>
      <point x="230" y="513"/>
      <point x="240" y="502"/>
      <point x="236" y="477" type="curve" smooth="yes"/>
      <point x="185" y="155" type="line" smooth="yes"/>
      <point x="177" y="106"/>
      <point x="173" y="84"/>
      <point x="173" y="63" type="curve" smooth="yes"/>
      <point x="173" y="18"/>
      <point x="199" y="0"/>
      <point x="248" y="0" type="curve" smooth="yes"/>
      <point x="281" y="0"/>
      <point x="309" y="0"/>
      <point x="343" y="0" type="curve"/>
      <point x="349" y="40" type="line"/>
      <point x="320" y="40"/>
      <point x="290" y="40"/>
      <point x="261" y="40" type="curve" smooth="yes"/>
      <point x="235" y="40"/>
      <point x="222" y="48"/>
      <point x="222" y="70" type="curve" smooth="yes"/>
      <point x="222" y="80"/>
      <point x="223" y="91"/>
    </contour>
  </outline>
</glyph>
<glyph name="Ldot" format="2">
  <advance width="782"/>
  <unicode hex="013F"/>
  <outline>
    <contour>
      <point x="445" y="710" type="line"/>
      <point x="171" y="710" type="line"/>
      <point x="165" y="670" type="line"/>
      <point x="188" y="670" type="line" smooth="yes"/>
      <point x="248" y="670"/>
      <point x="275" y="653"/>
      <point x="271" y="626" type="curve" smooth="yes"/>
      <point x="185" y="84" type="line" smooth="yes"/>
      <point x="180" y="54"/>
      <point x="148" y="40"/>
      <point x="88" y="40" type="curve" smooth="yes"/>
      <point x="65" y="40" type="line"/>
      <point x="59" y="0" type="line"/>
      <point x="690" y="0" type="line"/>
      <point x="725" y="218" type="line"/>
      <point x="686" y="218" type="line"/>
      <point x="648" y="87" type="line" smooth="yes"/>
      <point x="639" y="57"/>
      <point x="596" y="44"/>
      <point x="501" y="44" type="curve" smooth="yes"/>
      <point x="227" y="44" type="line"/>
      <point x="324" y="657" type="line" smooth="yes"/>
      <point x="326" y="669"/>
      <point x="386.0" y="670.0"/>
      <point x="426" y="670" type="curve" smooth="yes"/>
      <point x="439" y="670" type="line"/>
    </contour>
    <contour>
      <point x="776.0" y="447.0" type="curve" smooth="yes"/>
      <point x="776.0" y="484.0"/>
      <point x="752" y="508.0"/>
      <point x="713" y="508.0" type="curve" smooth="yes"/>
      <point x="672" y="508.0"/>
      <point x="645" y="487"/>
      <point x="645.0" y="443.0" type="curve" smooth="yes"/>
      <point x="645.0" y="405.0"/>
      <point x="666" y="382.0"/>
      <point x="707" y="382.0" type="curve" smooth="yes"/>
      <point x="746" y="382.0"/>
      <point x="776" y="402"/>
    </contour>
  </outline>
</glyph>
<glyph name="Lslash" format="2">
  <advance width="802"/>
  <unicode hex="0141"/>
  <outline>
    <contour>
      <point x="105" y="216" type="line"/>
      <point x="625" y="497" type="line"/>
      <point x="633" y="547" type="line"/>
      <point x="113" y="266" type="line"/>
    </contour>
    <contour>
      <point x="485" y="710" type="line"/>
      <point x="211" y="710" type="line"/>
      <point x="205" y="670" type="line"/>
      <point x="228" y="670" type="line" smooth="yes"/>
      <point x="288" y="670"/>
      <point x="315" y="653"/>
      <point x="311" y="626" type="curve" smooth="yes"/>
      <point x="225" y="84" type="line" smooth="yes"/>
      <point x="220" y="54"/>
      <point x="188" y="40"/>
      <point x="128" y="40" type="curve" smooth="yes"/>
      <point x="105" y="40" type="line"/>
      <point x="99" y="0" type="line"/>
      <point x="730" y="0" type="line"/>
      <point x="765" y="218" type="line"/>
      <point x="726" y="218" type="line"/>
      <point x="688" y="87" type="line" smooth="yes"/>
      <point x="679" y="57"/>
      <point x="636" y="44"/>
      <point x="541" y="44" type="curve" smooth="yes"/>
      <point x="267" y="44" type="line"/>
      <point x="364" y="657" type="line" smooth="yes"/>
      <point x="366" y="669"/>
      <point x="426" y="670"/>
      <point x="466" y="670" type="curve" smooth="yes"/>
      <point x="479" y="670" type="line"/>
    </contour>
  </outline>
</glyph>
<glyph name="ohorn" format="2">
  <advance width="736"/>
  <unicode hex="01A1"/>
  <anchor x="426" y="565" name="top"/>
  <anchor x="352" y="0" name="bottom"/>
  <outline>
    <contour>
      <point x="369" y="-12" type="curve" smooth="yes"/>
      <point x="574" y="-12"/>
      <point x="682" y="143"/>
      <point x="682" y="310" type="curve" smooth="yes"/>
      <point x="682.0" y="435"/>
      <point x="612" y="515"/>
      <point x="515" y="540" type="curve"/>
      <point x="598" y="492" type="line"/>
      <point x="605" y="526" type="line"/>
      <point x="494" y="554" type="line"/>
      <point x="565" y="521"/>
      <point x="622" y="506"/>
      <point x="673" y="506" type="curve" smooth="yes"/>
      <point x="757.0" y="506.0"/>
      <point x="812" y="543"/>
      <point x="846" y="737" type="curve"/>
      <point x="795" y="737" type="line"/>
      <point x="765" y="589"/>
      <point x="740" y="544"/>
      <point x="660" y="544" type="curve" smooth="yes"/>
      <point x="591" y="544"/>
      <point x="522" y="574"/>
      <point x="424" y="574" type="curve" smooth="yes"/>
      <point x="220.0" y="574.0"/>
      <point x="112" y="418"/>
      <point x="112" y="252" type="curve" smooth="yes"/>
      <point x="112" y="90"/>
      <point x="199" y="-12"/>
    </contour>
    <contour>
      <point x="375" y="29" type="curve" smooth="yes"/>
      <point x="310" y="29"/>
      <point x="259" y="47"/>
      <point x="224" y="80" type="curve" smooth="yes"/>
      <point x="185" y="116"/>
      <point x="165" y="171"/>
      <point x="165" y="239" type="curve" smooth="yes"/>
      <point x="165" y="409"/>
      <point x="246" y="533"/>
      <point x="420" y="533" type="curve" smooth="yes"/>
      <point x="486" y="533"/>
      <point x="537" y="514"/>
      <point x="572" y="480" type="curve" smooth="yes"/>
      <point x="610" y="443"/>
      <point x="629" y="388"/>
      <point x="629" y="321" type="curve" smooth="yes"/>
      <point x="629" y="152"/>
      <point x="539" y="29"/>
    </contour>
  </outline>
</glyph>
<glyph name="Uhorn" format="2">
  <advance width="1003"/>
  <unicode hex="01AF"/>
  <anchor x="589" y="741" name="top"/>
  <anchor x="472" y="0" name="bottom"/>
  <outline>
    <contour>
      <point x="969" y="672" type="curve" smooth="yes"/>
      <point x="1028" y="683"/>
      <point x="1114" y="697"/>
      <point x="1134" y="899" type="curve"/>
      <point x="1079" y="899" type="line"/>
      <point x="1060" y="751"/>
      <point x="1026.0" y="710.0"/>
      <point x="936" y="710" type="curve" smooth="yes"/>
      <point x="731" y="710" type="line"/>
      <point x="725" y="670" type="line"/>
      <point x="738" y="670" type="line" smooth="yes"/>
      <point x="779.0" y="670.0"/>
      <point x="836" y="663"/>
      <point x="834" y="651" type="curve" smooth="yes"/>
      <point x="780" y="308" type="line" smooth="yes"/>
      <point x="747" y="100"/>
      <point x="647" y="20"/>
      <point x="497" y="20" type="curve" smooth="yes"/>
      <point x="355" y="20"/>
      <point x="261" y="60"/>
      <point x="261" y="208" type="curve" smooth="yes"/>
      <point x="261.0" y="243.0"/>
      <point x="264" y="278"/>
      <point x="276" y="354" type="curve" smooth="yes"/>
      <point x="324" y="657" type="line" smooth="yes"/>
      <point x="326" y="669"/>
      <point x="386" y="670"/>
      <point x="426" y="670" type="curve" smooth="yes"/>
      <point x="439" y="670" type="line"/>
      <point x="445" y="710" type="line"/>
      <point x="171" y="710" type="line"/>
      <point x="165" y="670" type="line"/>
      <point x="188" y="670" type="line" smooth="yes"/>
      <point x="248" y="670.0"/>
      <point x="275" y="652"/>
      <point x="271" y="626" type="curve" smooth="yes"/>
      <point x="228" y="354" type="line" smooth="yes"/>
      <point x="215" y="274"/>
      <point x="212" y="240"/>
      <point x="212" y="198" type="curve" smooth="yes"/>
      <point x="212.0" y="36.0"/>
      <point x="321" y="-25"/>
      <point x="486" y="-25" type="curve" smooth="yes"/>
      <point x="652.0" y="-25.0"/>
      <point x="782" y="56"/>
      <point x="820" y="296" type="curve" smooth="yes"/>
      <point x="872" y="626" type="line" smooth="yes"/>
      <point x="875" y="648"/>
      <point x="894" y="658"/>
    </contour>
  </outline>
</glyph>
<glyph name="Oogonek" format="2">
  <advance width="913"/>
  <unicode hex="01EA"/>
  <outline>
    <contour>
      <point x="499" y="14" type="curve" smooth="yes"/>
      <point x="398" y="14"/>
      <point x="322" y="45"/>
      <point x="269" y="95" type="curve" smooth="yes"/>
      <point x="208" y="153"/>
      <point x="180" y="235"/>
      <point x="180" y="324" type="curve" smooth="yes"/>
      <point x="180" y="519"/>
      <point x="297" y="697"/>
      <point x="533" y="697" type="curve" smooth="yes"/>
      <point x="638" y="697"/>
      <point x="714" y="664"/>
      <point x="764" y="613" type="curve" smooth="yes"/>
      <point x="821" y="555"/>
      <point x="845" y="473"/>
      <point x="845" y="386" type="curve" smooth="yes"/>
      <point x="845" y="198"/>
      <point x="736" y="14"/>
    </contour>
    <contour>
      <point x="524" y="-252" type="curve" smooth="yes"/>
      <point x="585" y="-252"/>
      <point x="626" y="-227"/>
      <point x="664" y="-189" type="curve"/>
      <point x="637" y="-159" type="line"/>
      <point x="612" y="-183"/>
      <point x="581" y="-214"/>
      <point x="532" y="-214" type="curve" smooth="yes"/>
      <point x="482" y="-214"/>
      <point x="468" y="-189"/>
      <point x="468" y="-158" type="curve" smooth="yes"/>
      <point x="468" y="-103"/>
      <point x="512" y="-56"/>
      <point x="657" y="1" type="curve" smooth="yes"/>
      <point x="818" y="64"/>
      <point x="903" y="219"/>
      <point x="903" y="379" type="curve" smooth="yes"/>
      <point x="903" y="577"/>
      <point x="781" y="738"/>
      <point x="532" y="738" type="curve" smooth="yes"/>
      <point x="270" y="738"/>
      <point x="122" y="538"/>
      <point x="122" y="331" type="curve" smooth="yes"/>
      <point x="122" y="136"/>
      <point x="247" y="-27"/>
      <point x="500" y="-27" type="curve" smooth="yes"/>
      <point x="540.0" y="-27.0"/>
      <point x="583" y="-19"/>
      <point x="607" y="-11" type="curve"/>
      <point x="607" y="11" type="line"/>
      <point x="434" y="-72"/>
      <point x="410" y="-112"/>
      <point x="410" y="-166" type="curve" smooth="yes"/>
      <point x="410" y="-216"/>
      <point x="443" y="-252"/>
    </contour>
  </outline>
</glyph>
<glyph name="iinvertedbreve" format="2">
  <advance width="350"/>
  <unicode hex="020B"/>
  <outline>
    <contour>
      <point x="258" y="824" type="curve" smooth="yes"/>
      <point x="162" y="824"/>
      <point x="115" y="776"/>
      <point x="112" y="675" type="curve"/>
      <point x="158" y="675" type="line"/>
      <point x="162" y="750"/>
      <point x="187" y="777"/>
      <point x="256" y="777" type="curve" smooth="yes"/>
      <point x="327.0" y="777.0"/>
      <point x="347" y="742"/>
      <point x="345" y="675" type="curve"/>
      <point x="391" y="675" type="line"/>
      <point x="397.0" y="768.0"/>
      <point x="363" y="824"/>
    </contour>
    <contour>
      <point x="228" y="126" type="curve" smooth="yes"/>
      <point x="297" y="565" type="line"/>
      <point x="142" y="565" type="line"/>
      <point x="136" y="527" type="line"/>
      <point x="163" y="523" type="line" smooth="yes"/>
      <point x="230" y="513"/>
      <point x="240" y="502"/>
      <point x="236" y="477" type="curve" smooth="yes"/>
      <point x="185" y="155" type="line" smooth="yes"/>
      <point x="177" y="106"/>
      <point x="173" y="84"/>
      <point x="173" y="63" type="curve" smooth="yes"/>
      <point x="173" y="18"/>
      <point x="199" y="0"/>
      <point x="248" y="0" type="curve" smooth="yes"/>
      <point x="281" y="0"/>
      <point x="309" y="0"/>
      <point x="343" y="0" type="curve"/>
      <point x="349" y="40" type="line"/>
      <point x="320" y="40"/>
      <point x="290" y="40"/>
      <point x="261" y="40" type="curve" smooth="yes"/>
      <point x="235" y="40"/>
      <point x="222" y="48"/>
      <point x="222" y="70" type="curve" smooth="yes"/>
      <point x="222" y="80"/>
      <point x="223" y="91"/>
    </contour>
  </outline>
</glyph>
<glyph name="zero.den" format="2">
  <advance width="527"/>
  <unicode hex="E402"/>
  <outline>
    <contour>
      <point x="429" y="243" type="curve" smooth="yes"/>
      <point x="429" y="112"/>
      <point x="370" y="33"/>
      <point x="280" y="33" type="curve" smooth="yes"/>
      <point x="228" y="33"/>
      <point x="163" y="63"/>
      <point x="163" y="176" type="curve" smooth="yes"/>
      <point x="163" y="309"/>
      <point x="223" y="382"/>
      <point x="312" y="382" type="curve" smooth="yes"/>
      <point x="363" y="382"/>
      <point x="429" y="356"/>
    </contour>
    <contour>
      <point x="484" y="231" type="curve" smooth="yes"/>
      <point x="484" y="344"/>
      <point x="428" y="421"/>
      <point x="312" y="421" type="curve" smooth="yes"/>
      <point x="199" y="421"/>
      <point x="108" y="333"/>
      <point x="108" y="184" type="curve" smooth="yes"/>
      <point x="108" y="57"/>
      <point x="170" y="-6"/>
      <point x="280" y="-6" type="curve" smooth="yes"/>
      <point x="392" y="-6"/>
      <point x="484" y="82"/>
    </contour>
  </outline>
</glyph>
<glyph name="five.den" format="2">
  <advance width="512"/>
  <unicode hex="E407"/>
  <guideline x="109" y="272" angle="81" identifier="jNmvOWXkbR"/>
  <outline>
    <contour>
      <point x="283" y="-6" type="curve" smooth="yes"/>
      <point x="187" y="-6"/>
      <point x="144" y="28"/>
      <point x="109" y="94" type="curve"/>
      <point x="147" y="115" type="line"/>
      <point x="176" y="58"/>
      <point x="213" y="29"/>
      <point x="278" y="29" type="curve" smooth="yes"/>
      <point x="346" y="29"/>
      <point x="390" y="62"/>
      <point x="390" y="142" type="curve" smooth="yes"/>
      <point x="390" y="205"/>
      <point x="360" y="245"/>
      <point x="290" y="245" type="curve" smooth="yes"/>
      <point x="234" y="245"/>
      <point x="204" y="219"/>
      <point x="182" y="195" type="curve"/>
      <point x="151" y="195" type="line"/>
      <point x="186" y="415" type="line"/>
      <point x="436" y="415" type="line"/>
      <point x="423" y="376" type="line"/>
      <point x="193" y="376" type="line"/>
      <point x="218" y="401" type="line"/>
      <point x="188" y="216" type="line"/>
      <point x="184" y="206"/>
      <point x="174" y="206"/>
      <point x="171" y="213" type="curve"/>
      <point x="202" y="255"/>
      <point x="243" y="278"/>
      <point x="297" y="278" type="curve" smooth="yes"/>
      <point x="385" y="278"/>
      <point x="438" y="231"/>
      <point x="438" y="143" type="curve" smooth="yes"/>
      <point x="438" y="45"/>
      <point x="370" y="-6"/>
    </contour>
  </outline>
</glyph>
<glyph name="nine.den" format="2">
  <advance width="528"/>
  <unicode hex="E40B"/>
  <outline>
    <contour>
      <point x="301" y="420" type="curve" smooth="yes"/>
      <point x="404" y="420"/>
      <point x="466" y="359"/>
      <point x="466" y="241" type="curve" smooth="yes"/>
      <point x="466" y="106"/>
      <point x="374" y="-6"/>
      <point x="164" y="-22" type="curve"/>
      <point x="159" y="8" type="line"/>
      <point x="344" y="21"/>
      <point x="422" y="116"/>
      <point x="422" y="241" type="curve" smooth="yes"/>
      <point x="422" y="327"/>
      <point x="387" y="385"/>
      <point x="304" y="385" type="curve" smooth="yes"/>
      <point x="224" y="385"/>
      <point x="189" y="339"/>
      <point x="189" y="268" type="curve" smooth="yes"/>
      <point x="189" y="203"/>
      <point x="219" y="165"/>
      <point x="285" y="165" type="curve" smooth="yes"/>
      <point x="341" y="165"/>
      <point x="393" y="196"/>
      <point x="429" y="276" type="curve"/>
      <point x="432" y="247" type="line"/>
      <point x="403" y="173"/>
      <point x="347" y="130"/>
      <point x="272" y="130" type="curve" smooth="yes"/>
      <point x="187" y="130"/>
      <point x="142" y="184"/>
      <point x="142" y="269" type="curve" smooth="yes"/>
      <point x="142" y="356"/>
      <point x="205" y="420"/>
    </contour>
  </outline>
</glyph>
<glyph name="breve_acute.uc" format="2">
  <advance width="323"/>
  <anchor x="298" y="741" name="_top"/>
  <outline>
    <contour>
      <point x="338" y="1072" type="curve" smooth="yes"/>
      <point x="261" y="993" type="line"/>
      <point x="258" y="972" type="line"/>
      <point x="282" y="972" type="line"/>
      <point x="410" y="1037" type="line" smooth="yes"/>
      <point x="447" y="1056"/>
      <point x="470" y="1071"/>
      <point x="470" y="1098" type="curve" smooth="yes"/>
      <point x="470" y="1118"/>
      <point x="456" y="1133"/>
      <point x="430" y="1133" type="curve" smooth="yes"/>
      <point x="397" y="1133"/>
      <point x="376" y="1110"/>
    </contour>
    <contour>
      <point x="312" y="794" type="curve" smooth="yes"/>
      <point x="186" y="794"/>
      <point x="145" y="856"/>
      <point x="149" y="939" type="curve"/>
      <point x="188" y="939" type="line"/>
      <point x="191" y="880"/>
      <point x="222" y="845"/>
      <point x="311" y="845" type="curve" smooth="yes"/>
      <point x="387" y="845"/>
      <point x="421" y="867"/>
      <point x="433" y="939" type="curve"/>
      <point x="470" y="939" type="line"/>
      <point x="468" y="852"/>
      <point x="418" y="794"/>
    </contour>
  </outline>
</glyph>
<glyph name="breve_grave.uc" format="2">
  <advance width="323"/>
  <anchor x="298" y="741" name="_top"/>
  <outline>
    <contour>
      <point x="278" y="1067" type="curve" smooth="yes"/>
      <point x="353" y="993" type="line"/>
      <point x="350" y="972" type="line"/>
      <point x="330" y="972" type="line"/>
      <point x="199" y="1044" type="line" smooth="yes"/>
      <point x="175" y="1057"/>
      <point x="157" y="1070"/>
      <point x="157" y="1093" type="curve" smooth="yes"/>
      <point x="157.0" y="1112.0"/>
      <point x="173" y="1125"/>
      <point x="195" y="1125" type="curve" smooth="yes"/>
      <point x="218.0" y="1125.0"/>
      <point x="228" y="1117"/>
    </contour>
    <contour>
      <point x="312" y="794" type="curve" smooth="yes"/>
      <point x="186" y="794"/>
      <point x="145" y="856"/>
      <point x="149" y="939" type="curve"/>
      <point x="188" y="939" type="line"/>
      <point x="191" y="880"/>
      <point x="222" y="845"/>
      <point x="311" y="845" type="curve" smooth="yes"/>
      <point x="387" y="845"/>
      <point x="421" y="867"/>
      <point x="433" y="939" type="curve"/>
      <point x="470" y="939" type="line"/>
      <point x="468" y="852"/>
      <point x="418" y="794"/>
    </contour>
  </outline>
</glyph>
<glyph name="circumflex_acute.uc" format="2">
  <advance width="470"/>
  <guideline x="428" y="905" angle="81" identifier="saEwWJbhIx"/>
  <anchor x="288" y="741" name="_top"/>
  <outline>
    <contour>
      <point x="520" y="1043.0" type="curve" smooth="yes"/>
      <point x="433" y="935.0" type="line"/>
      <point x="430" y="915.0" type="line"/>
      <point x="454" y="915.0" type="line"/>
      <point x="577" y="1007.0" type="line" smooth="yes"/>
      <point x="609" y="1031"/>
      <point x="626" y="1046"/>
      <point x="626" y="1070.0" type="curve" smooth="yes"/>
      <point x="626.0" y="1086.0"/>
      <point x="614" y="1100.0"/>
      <point x="593" y="1100.0" type="curve" smooth="yes"/>
      <point x="562" y="1100.0"/>
      <point x="548" y="1078"/>
    </contour>
    <contour>
      <point x="329" y="955" type="line"/>
      <point x="461" y="803" type="line"/>
      <point x="458" y="782" type="line"/>
      <point x="435" y="782" type="line"/>
      <point x="276" y="912" type="line"/>
      <point x="310" y="913" type="line"/>
      <point x="149" y="782" type="line"/>
      <point x="124" y="782" type="line"/>
      <point x="127" y="803" type="line"/>
      <point x="263" y="955" type="line"/>
    </contour>
  </outline>
</glyph>
<glyph name="circumflex_grave.uc" format="2">
  <advance width="383"/>
  <anchor x="288" y="741" name="_top"/>
  <outline>
    <contour>
      <point x="466" y="1040.0" type="line" smooth="yes"/>
      <point x="449" y="1075"/>
      <point x="440" y="1095"/>
      <point x="411" y="1095.0" type="curve" smooth="yes"/>
      <point x="387" y="1095"/>
      <point x="371" y="1078"/>
      <point x="371" y="1061.0" type="curve" smooth="yes"/>
      <point x="371" y="1042"/>
      <point x="379" y="1033"/>
      <point x="402" y="1008.0" type="curve" smooth="yes"/>
      <point x="492" y="910.0" type="line"/>
      <point x="516" y="910.0" type="line"/>
      <point x="519" y="931.0" type="line"/>
    </contour>
    <contour>
      <point x="329" y="955" type="line"/>
      <point x="461" y="803" type="line"/>
      <point x="458" y="782" type="line"/>
      <point x="435" y="782" type="line"/>
      <point x="276" y="912" type="line"/>
      <point x="310" y="913" type="line"/>
      <point x="149" y="782" type="line"/>
      <point x="124" y="782" type="line"/>
      <point x="127" y="803" type="line"/>
      <point x="263" y="955" type="line"/>
    </contour>
  </outline>
</glyph>
<glyph name="f_f.alt" format="2">
  <advance width="796"/>
  <outline>
    <contour>
      <point x="476" y="565" type="line"/>
      <point x="470" y="521" type="line"/>
      <point x="828" y="521" type="line"/>
      <point x="834" y="565" type="line"/>
    </contour>
    <contour>
      <point x="119" y="565" type="line"/>
      <point x="113" y="521" type="line"/>
      <point x="522" y="521" type="line"/>
      <point x="528" y="565" type="line"/>
    </contour>
    <contour>
      <point x="131" y="-223" type="line"/>
      <point x="174" y="-223" type="line"/>
      <point x="303" y="604" type="line" smooth="yes"/>
      <point x="318" y="698"/>
      <point x="365" y="731"/>
      <point x="464" y="731" type="curve" smooth="yes"/>
      <point x="536" y="731"/>
      <point x="616" y="711"/>
      <point x="660" y="690" type="curve"/>
      <point x="673" y="735" type="line"/>
      <point x="629" y="755"/>
      <point x="539" y="775"/>
      <point x="463" y="775" type="curve" smooth="yes"/>
      <point x="339" y="775"/>
      <point x="268" y="719"/>
      <point x="252" y="610" type="curve" smooth="yes"/>
    </contour>
    <contour>
      <point x="488" y="-223" type="line"/>
      <point x="531" y="-223" type="line"/>
      <point x="665" y="639" type="line" smooth="yes"/>
      <point x="677" y="713"/>
      <point x="707" y="746"/>
      <point x="785" y="746" type="curve" smooth="yes"/>
      <point x="827" y="746"/>
      <point x="861" y="736"/>
      <point x="874" y="733" type="curve"/>
      <point x="866" y="752"/>
      <point x="859" y="768"/>
      <point x="845" y="780" type="curve"/>
      <point x="826" y="664" type="line"/>
      <point x="876" y="664" type="line"/>
      <point x="894" y="775" type="line"/>
      <point x="871" y="782"/>
      <point x="835" y="790"/>
      <point x="782" y="790" type="curve" smooth="yes"/>
      <point x="681" y="790"/>
      <point x="627" y="739"/>
      <point x="613" y="645" type="curve" smooth="yes"/>
    </contour>
  </outline>
</glyph>
<glyph name="f_f_b.alt" format="2">
  <advance width="1447"/>
  <outline>
    <contour>
      <point x="119" y="565" type="line"/>
      <point x="113" y="521" type="line"/>
      <point x="522" y="521" type="line"/>
      <point x="528" y="565" type="line"/>
    </contour>
    <contour>
      <point x="475" y="565" type="line"/>
      <point x="469" y="521" type="line"/>
      <point x="878" y="521" type="line"/>
      <point x="884" y="565" type="line"/>
    </contour>
    <contour>
      <point x="1118" y="-12" type="curve" smooth="yes"/>
      <point x="1344.0" y="-12.0"/>
      <point x="1434" y="182"/>
      <point x="1434" y="340" type="curve" smooth="yes"/>
      <point x="1434.0" y="509.0"/>
      <point x="1336" y="575"/>
      <point x="1220" y="575" type="curve" smooth="yes"/>
      <point x="1128" y="575"/>
      <point x="1046" y="535"/>
      <point x="974" y="433" type="curve"/>
      <point x="974" y="391" type="line"/>
      <point x="1054" y="494"/>
      <point x="1119" y="534"/>
      <point x="1214" y="534" type="curve" smooth="yes"/>
      <point x="1302.0" y="534.0"/>
      <point x="1380" y="480"/>
      <point x="1380" y="340" type="curve" smooth="yes"/>
      <point x="1380.0" y="216.0"/>
      <point x="1316" y="28"/>
      <point x="1124" y="28" type="curve" smooth="yes"/>
      <point x="1016" y="28"/>
      <point x="951" y="68"/>
      <point x="921" y="102" type="curve"/>
      <point x="920" y="95"/>
      <point x="918" y="79"/>
      <point x="930" y="70" type="curve"/>
      <point x="1043" y="780" type="line"/>
      <point x="908" y="768" type="line"/>
      <point x="988" y="734" type="line"/>
      <point x="880" y="67" type="line"/>
      <point x="932" y="24"/>
      <point x="1013" y="-12"/>
    </contour>
    <contour>
      <point x="464" y="731" type="curve" smooth="yes"/>
      <point x="536" y="731"/>
      <point x="616" y="711"/>
      <point x="660" y="690" type="curve"/>
      <point x="673" y="735" type="line"/>
      <point x="629" y="755"/>
      <point x="539" y="775"/>
      <point x="463" y="775" type="curve" smooth="yes"/>
      <point x="339" y="775"/>
      <point x="268" y="719"/>
      <point x="252" y="610" type="curve" smooth="yes"/>
      <point x="131" y="-223" type="line"/>
      <point x="174" y="-223" type="line"/>
      <point x="303" y="604" type="line" smooth="yes"/>
      <point x="318" y="698"/>
      <point x="365" y="731"/>
    </contour>
    <contour>
      <point x="822" y="746" type="curve" smooth="yes"/>
      <point x="894" y="746"/>
      <point x="974" y="726"/>
      <point x="1018" y="705" type="curve"/>
      <point x="1031" y="750" type="line"/>
      <point x="987" y="770"/>
      <point x="897" y="790"/>
      <point x="821" y="790" type="curve" smooth="yes"/>
      <point x="697" y="790"/>
      <point x="626" y="734"/>
      <point x="610" y="625" type="curve" smooth="yes"/>
      <point x="487" y="-223" type="line"/>
      <point x="530" y="-223" type="line"/>
      <point x="661" y="619" type="line" smooth="yes"/>
      <point x="676" y="713"/>
      <point x="723" y="746"/>
    </contour>
  </outline>
</glyph>
<glyph name="f_f_l.alt" format="2">
  <advance width="1074"/>
  <outline>
    <contour>
      <point x="119" y="565" type="line"/>
      <point x="113" y="521" type="line"/>
      <point x="522" y="521" type="line"/>
      <point x="528" y="565" type="line"/>
    </contour>
    <contour>
      <point x="475" y="565" type="line"/>
      <point x="469" y="521" type="line"/>
      <point x="878" y="521" type="line"/>
      <point x="884" y="565" type="line"/>
    </contour>
    <contour>
      <point x="947" y="170" type="curve" smooth="yes"/>
      <point x="1044" y="780" type="line"/>
      <point x="909" y="768" type="line"/>
      <point x="989" y="734" type="line"/>
      <point x="899" y="170" type="line" smooth="yes"/>
      <point x="890" y="115"/>
      <point x="885" y="85"/>
      <point x="885" y="62" type="curve" smooth="yes"/>
      <point x="885" y="17"/>
      <point x="908" y="0"/>
      <point x="957" y="0" type="curve" smooth="yes"/>
      <point x="1000" y="0"/>
      <point x="1030" y="0"/>
      <point x="1056" y="0" type="curve"/>
      <point x="1062" y="40" type="line"/>
      <point x="1032" y="40"/>
      <point x="997" y="40"/>
      <point x="970" y="40" type="curve" smooth="yes"/>
      <point x="945" y="40"/>
      <point x="935" y="48"/>
      <point x="935" y="70" type="curve" smooth="yes"/>
      <point x="935" y="89"/>
      <point x="940" y="127"/>
    </contour>
    <contour>
      <point x="464" y="731" type="curve" smooth="yes"/>
      <point x="536" y="731"/>
      <point x="616" y="711"/>
      <point x="660" y="690" type="curve"/>
      <point x="673" y="735" type="line"/>
      <point x="629" y="755"/>
      <point x="539" y="775"/>
      <point x="463" y="775" type="curve" smooth="yes"/>
      <point x="339" y="775"/>
      <point x="268" y="719"/>
      <point x="252" y="610" type="curve" smooth="yes"/>
      <point x="131" y="-223" type="line"/>
      <point x="174" y="-223" type="line"/>
      <point x="303" y="604" type="line" smooth="yes"/>
      <point x="318" y="698"/>
      <point x="365" y="731"/>
    </contour>
    <contour>
      <point x="822" y="746" type="curve" smooth="yes"/>
      <point x="894" y="746"/>
      <point x="974" y="726"/>
      <point x="1018" y="705" type="curve"/>
      <point x="1031" y="750" type="line"/>
      <point x="987" y="770"/>
      <point x="897" y="790"/>
      <point x="821" y="790" type="curve" smooth="yes"/>
      <point x="697" y="790"/>
      <point x="626" y="734"/>
      <point x="610" y="625" type="curve" smooth="yes"/>
      <point x="487" y="-223" type="line"/>
      <point x="530" y="-223" type="line"/>
      <point x="661" y="619" type="line" smooth="yes"/>
      <point x="676" y="713"/>
      <point x="723" y="746"/>
    </contour>
  </outline>
</glyph>
<glyph name="four.midprop" format="2">
  <advance width="668"/>
  <guideline x="513" y="-6" angle="81" identifier="YtPR0oKrjK"/>
  <outline>
    <contour>
      <point x="64" y="149" type="line"/>
      <point x="672" y="149" type="line"/>
      <point x="679" y="195" type="line"/>
      <point x="102" y="195" type="line"/>
      <point x="99" y="176" type="line"/>
      <point x="578" y="662" type="line"/>
      <point x="567" y="667" type="line"/>
      <point x="528" y="667" type="line"/>
      <point x="73" y="207" type="line"/>
    </contour>
    <contour>
      <point x="495" y="-49" type="line"/>
      <point x="609" y="667" type="line"/>
      <point x="544" y="667" type="line"/>
      <point x="558" y="655" type="line"/>
      <point x="446" y="-49" type="line"/>
    </contour>
  </outline>
</glyph>
<glyph name="ring.uc" format="2">
  <advance width="249"/>
  <anchor x="242" y="740" name="_top"/>
  <outline>
    <contour>
      <point x="265" y="821" type="curve" smooth="yes"/>
      <point x="217" y="821"/>
      <point x="193" y="850"/>
      <point x="193" y="895" type="curve" smooth="yes"/>
      <point x="193.0" y="946.0"/>
      <point x="223" y="978"/>
      <point x="271" y="978" type="curve" smooth="yes"/>
      <point x="319" y="978"/>
      <point x="343" y="950"/>
      <point x="343" y="905" type="curve" smooth="yes"/>
      <point x="343.0" y="853.0"/>
      <point x="313" y="821"/>
    </contour>
    <contour>
      <point x="261" y="783" type="curve" smooth="yes"/>
      <point x="336" y="783"/>
      <point x="391" y="831"/>
      <point x="391" y="905" type="curve" smooth="yes"/>
      <point x="391.0" y="973.0"/>
      <point x="348" y="1016"/>
      <point x="273" y="1016" type="curve" smooth="yes"/>
      <point x="199" y="1016"/>
      <point x="144" y="969"/>
      <point x="144" y="895" type="curve" smooth="yes"/>
      <point x="144.0" y="827.0"/>
      <point x="187" y="783"/>
    </contour>
  </outline>
</glyph>
<glyph name="ringhalfright" format="2">
  <advance width="530"/>
  <anchor x="392.0" y="566" name="_top"/>
  <outline>
    <contour>
      <point x="331" y="644" type="line"/>
      <point x="405" y="644"/>
      <point x="454" y="689"/>
      <point x="454" y="753" type="curve" smooth="yes"/>
      <point x="454" y="817"/>
      <point x="405" y="862"/>
      <point x="331" y="862" type="curve"/>
      <point x="331" y="827" type="line"/>
      <point x="376" y="827"/>
      <point x="409" y="804"/>
      <point x="409" y="753" type="curve" smooth="yes"/>
      <point x="409" y="702"/>
      <point x="376" y="679"/>
      <point x="331" y="679" type="curve"/>
    </contour>
  </outline>
</glyph>
<glyph name="six.midprop" format="2">
  <advance width="667"/>
  <outline>
    <contour>
      <point x="657" y="699" type="line"/>
      <point x="390" y="677"/>
      <point x="205" y="532"/>
      <point x="168" y="323" type="curve" smooth="yes"/>
      <point x="165" y="306"/>
      <point x="164" y="288"/>
      <point x="164" y="263" type="curve" smooth="yes"/>
      <point x="164.0" y="96"/>
      <point x="245" y="31"/>
      <point x="370" y="31" type="curve"/>
      <point x="509" y="31"/>
      <point x="584.0" y="125"/>
      <point x="584" y="242" type="curve" smooth="yes"/>
      <point x="584.0" y="344"/>
      <point x="530.0" y="424.0"/>
      <point x="409" y="424" type="curve" smooth="yes"/>
      <point x="301" y="424"/>
      <point x="213" y="373"/>
      <point x="146" y="239" type="curve"/>
      <point x="142" y="280" type="line"/>
      <point x="209" y="412"/>
      <point x="301" y="468"/>
      <point x="412" y="468" type="curve" smooth="yes"/>
      <point x="563" y="468"/>
      <point x="640.0" y="372.0"/>
      <point x="640" y="243" type="curve" smooth="yes"/>
      <point x="640" y="111"/>
      <point x="540" y="-14"/>
      <point x="373" y="-14" type="curve"/>
      <point x="211" y="-14"/>
      <point x="108" y="71"/>
      <point x="108" y="259" type="curve" smooth="yes"/>
      <point x="108" y="477"/>
      <point x="279" y="705"/>
      <point x="653" y="740" type="curve"/>
    </contour>
  </outline>
</glyph>
<glyph name="two.lintab" format="2">
  <advance width="680"/>
  <guideline x="45" y="-3" angle="81" identifier="0NW13Px7pg"/>
  <guideline x="601" y="67" angle="81" identifier="detFwvMS5M"/>
  <outline>
    <contour>
      <point x="45" y="0" type="line"/>
      <point x="51" y="41" type="line"/>
      <point x="382" y="276"/>
      <point x="581" y="367"/>
      <point x="581" y="536" type="curve" smooth="yes"/>
      <point x="581" y="641"/>
      <point x="514" y="690"/>
      <point x="392" y="690" type="curve" smooth="yes"/>
      <point x="313" y="690"/>
      <point x="240" y="676"/>
      <point x="187" y="655" type="curve"/>
      <point x="192" y="671"/>
      <point x="202" y="683"/>
      <point x="216" y="687" type="curve"/>
      <point x="188" y="513" type="line"/>
      <point x="138" y="513" type="line"/>
      <point x="168" y="698" type="line"/>
      <point x="217" y="714"/>
      <point x="303" y="735"/>
      <point x="396" y="735" type="curve" smooth="yes"/>
      <point x="550" y="735"/>
      <point x="637" y="669"/>
      <point x="637" y="544" type="curve" smooth="yes"/>
      <point x="637" y="371"/>
      <point x="487" y="280"/>
      <point x="84" y="20" type="curve"/>
      <point x="81" y="45" type="line"/>
      <point x="408" y="45" type="line" smooth="yes"/>
      <point x="495" y="45"/>
      <point x="529" y="52"/>
      <point x="541" y="86" type="curve" smooth="yes"/>
      <point x="571" y="175" type="line"/>
      <point x="614" y="175" type="line"/>
      <point x="586" y="0" type="line"/>
    </contour>
  </outline>
</glyph>
<glyph name="zero.oldtab" format="2">
  <advance width="680"/>
  <outline>
    <contour>
      <point x="372" y="-11" type="curve" smooth="yes"/>
      <point x="567" y="-11"/>
      <point x="661" y="165"/>
      <point x="661" y="355" type="curve" smooth="yes"/>
      <point x="661" y="537"/>
      <point x="571" y="649"/>
      <point x="410" y="649" type="curve" smooth="yes"/>
      <point x="215" y="649"/>
      <point x="121" y="473"/>
      <point x="121" y="282" type="curve" smooth="yes"/>
      <point x="121" y="99"/>
      <point x="211" y="-11"/>
    </contour>
    <contour>
      <point x="373" y="28" type="curve" smooth="yes"/>
      <point x="238" y="28"/>
      <point x="175" y="132"/>
      <point x="175" y="271" type="curve" smooth="yes"/>
      <point x="175" y="486"/>
      <point x="267" y="611"/>
      <point x="410" y="611" type="curve" smooth="yes"/>
      <point x="541" y="611"/>
      <point x="608" y="507"/>
      <point x="608" y="372" type="curve" smooth="yes"/>
      <point x="608" y="160"/>
      <point x="517" y="28"/>
    </contour>
  </outline>
</glyph>
<glyph name="zero.propslash" format="2">
  <advance width="652"/>
  <outline>
    <contour>
      <point x="187.5" y="140.0" type="line"/>
      <point x="619.5" y="487.0" type="line"/>
      <point x="601.5" y="527.0" type="line"/>
      <point x="166.5" y="176.0" type="line"/>
    </contour>
    <contour>
      <point x="367.0" y="-15.0" type="curve" smooth="yes"/>
      <point x="572.0" y="-15.0"/>
      <point x="666.0" y="178.0"/>
      <point x="666.0" y="388.0" type="curve" smooth="yes"/>
      <point x="666.0" y="578.0"/>
      <point x="576.0" y="682.0"/>
      <point x="419.0" y="682.0" type="curve" smooth="yes"/>
      <point x="214.0" y="682.0"/>
      <point x="120.0" y="484.0"/>
      <point x="120.0" y="280.0" type="curve" smooth="yes"/>
      <point x="120.0" y="84.0"/>
      <point x="210.0" y="-15.0"/>
    </contour>
    <contour>
      <point x="369.0" y="26.0" type="curve" smooth="yes"/>
      <point x="243.0" y="26.0"/>
      <point x="176.0" y="104.0"/>
      <point x="176.0" y="278.0" type="curve" smooth="yes"/>
      <point x="176.0" y="494.0"/>
      <point x="261.0" y="641.0"/>
      <point x="417.0" y="641.0" type="curve" smooth="yes"/>
      <point x="543.0" y="641.0"/>
      <point x="610.0" y="564.0"/>
      <point x="610.0" y="390.0" type="curve" smooth="yes"/>
      <point x="610.0" y="174.0"/>
      <point x="525.0" y="26.0"/>
    </contour>
  </outline>
</glyph>
<glyph name="zero.slashlin" format="2">
  <advance width="680"/>
  <outline>
    <contour>
      <point x="367.0" y="-11.0" type="curve" smooth="yes"/>
      <point x="569.0" y="-11.0"/>
      <point x="654.0" y="216.0"/>
      <point x="654.0" y="423.0" type="curve" smooth="yes"/>
      <point x="654.0" y="618.0"/>
      <point x="585.0" y="735.0"/>
      <point x="429.0" y="735.0" type="curve" smooth="yes"/>
      <point x="226.0" y="735.0"/>
      <point x="142.0" y="508.0"/>
      <point x="142.0" y="301.0" type="curve" smooth="yes"/>
      <point x="142.0" y="95.0"/>
      <point x="219.0" y="-11.0"/>
    </contour>
    <contour>
      <point x="372.0" y="33" type="curve" smooth="yes"/>
      <point x="237.0" y="33"/>
      <point x="200.0" y="148"/>
      <point x="200.0" y="291" type="curve" smooth="yes"/>
      <point x="200.0" y="527"/>
      <point x="281.0" y="692"/>
      <point x="424.0" y="692" type="curve" smooth="yes"/>
      <point x="559.0" y="692"/>
      <point x="596.0" y="578"/>
      <point x="596.0" y="435" type="curve" smooth="yes"/>
      <point x="596.0" y="204"/>
      <point x="516.0" y="33"/>
    </contour>
    <contour>
      <point x="193" y="169.0" type="line"/>
      <point x="625" y="515.0" type="line"/>
      <point x="607" y="555.0" type="line"/>
      <point x="172" y="205.0" type="line"/>
    </contour>
  </outline>
</glyph>
